<mxfile host="app.diagrams.net" modified="2023-08-20T12:05:29.662Z" agent="Mozilla/5.0 (Windows NT 10.0; Win64; x64) AppleWebKit/537.36 (KHTML, like Gecko) Chrome/115.0.0.0 Safari/537.36 OPR/101.0.0.0 (Edition Yx 08)" etag="8PJPqjrzxLkVHMDGoOIO" version="21.6.8" type="device">
  <diagram id="C5RBs43oDa-KdzZeNtuy" name="Page-1">
    <mxGraphModel dx="1401" dy="806" grid="1" gridSize="10" guides="1" tooltips="0" connect="1" arrows="1" fold="1" page="1" pageScale="1" pageWidth="827" pageHeight="1169" math="0" shadow="0">
      <root>
        <mxCell id="WIyWlLk6GJQsqaUBKTNV-0" />
        <mxCell id="WIyWlLk6GJQsqaUBKTNV-1" parent="WIyWlLk6GJQsqaUBKTNV-0" />
        <mxCell id="QuJUpWV3iU7dLVu2fuEj-5" value="" style="edgeStyle=orthogonalEdgeStyle;rounded=0;orthogonalLoop=1;jettySize=auto;html=1;" parent="WIyWlLk6GJQsqaUBKTNV-1" source="QuJUpWV3iU7dLVu2fuEj-4" target="WIyWlLk6GJQsqaUBKTNV-3" edge="1">
          <mxGeometry relative="1" as="geometry">
            <mxPoint x="220" y="90" as="sourcePoint" />
          </mxGeometry>
        </mxCell>
        <mxCell id="QuJUpWV3iU7dLVu2fuEj-72" style="edgeStyle=orthogonalEdgeStyle;rounded=0;orthogonalLoop=1;jettySize=auto;html=1;" parent="WIyWlLk6GJQsqaUBKTNV-1" source="WIyWlLk6GJQsqaUBKTNV-3" target="QuJUpWV3iU7dLVu2fuEj-71" edge="1">
          <mxGeometry relative="1" as="geometry" />
        </mxCell>
        <mxCell id="QuJUpWV3iU7dLVu2fuEj-78" value="" style="edgeStyle=orthogonalEdgeStyle;rounded=0;orthogonalLoop=1;jettySize=auto;html=1;" parent="WIyWlLk6GJQsqaUBKTNV-1" source="WIyWlLk6GJQsqaUBKTNV-3" target="QuJUpWV3iU7dLVu2fuEj-77" edge="1">
          <mxGeometry relative="1" as="geometry" />
        </mxCell>
        <mxCell id="WIyWlLk6GJQsqaUBKTNV-3" value="cell cache_status_ == DIRTY?" style="rounded=1;whiteSpace=wrap;html=1;fontSize=12;glass=0;strokeWidth=1;shadow=0;" parent="WIyWlLk6GJQsqaUBKTNV-1" vertex="1">
          <mxGeometry x="140" y="120" width="160" height="30" as="geometry" />
        </mxCell>
        <mxCell id="QuJUpWV3iU7dLVu2fuEj-4" value="Start" style="ellipse;whiteSpace=wrap;html=1;rounded=1;glass=0;strokeWidth=1;shadow=0;" parent="WIyWlLk6GJQsqaUBKTNV-1" vertex="1">
          <mxGeometry x="170" y="40" width="100" height="40" as="geometry" />
        </mxCell>
        <mxCell id="QuJUpWV3iU7dLVu2fuEj-20" value="return&lt;br&gt;(end)" style="ellipse;whiteSpace=wrap;html=1;rounded=1;glass=0;strokeWidth=1;shadow=0;" parent="WIyWlLk6GJQsqaUBKTNV-1" vertex="1">
          <mxGeometry x="590" y="110" width="50" height="50" as="geometry" />
        </mxCell>
        <mxCell id="QuJUpWV3iU7dLVu2fuEj-74" style="edgeStyle=orthogonalEdgeStyle;rounded=0;orthogonalLoop=1;jettySize=auto;html=1;" parent="WIyWlLk6GJQsqaUBKTNV-1" source="QuJUpWV3iU7dLVu2fuEj-71" target="QuJUpWV3iU7dLVu2fuEj-20" edge="1">
          <mxGeometry relative="1" as="geometry">
            <mxPoint x="570" y="135" as="targetPoint" />
          </mxGeometry>
        </mxCell>
        <mxCell id="QuJUpWV3iU7dLVu2fuEj-94" style="edgeStyle=orthogonalEdgeStyle;rounded=0;orthogonalLoop=1;jettySize=auto;html=1;entryX=1;entryY=0.25;entryDx=0;entryDy=0;" parent="WIyWlLk6GJQsqaUBKTNV-1" source="QuJUpWV3iU7dLVu2fuEj-71" target="QuJUpWV3iU7dLVu2fuEj-77" edge="1">
          <mxGeometry relative="1" as="geometry">
            <Array as="points">
              <mxPoint x="450" y="208" />
            </Array>
          </mxGeometry>
        </mxCell>
        <mxCell id="QuJUpWV3iU7dLVu2fuEj-71" value="cache_.has_value()?" style="rounded=1;whiteSpace=wrap;html=1;fontSize=12;glass=0;strokeWidth=1;shadow=0;" parent="WIyWlLk6GJQsqaUBKTNV-1" vertex="1">
          <mxGeometry x="370" y="120" width="160" height="30" as="geometry" />
        </mxCell>
        <mxCell id="QuJUpWV3iU7dLVu2fuEj-73" value="false" style="text;html=1;align=center;verticalAlign=middle;resizable=0;points=[];autosize=1;strokeColor=none;fillColor=none;" parent="WIyWlLk6GJQsqaUBKTNV-1" vertex="1">
          <mxGeometry x="310" y="110" width="50" height="30" as="geometry" />
        </mxCell>
        <mxCell id="QuJUpWV3iU7dLVu2fuEj-76" value="true" style="text;html=1;align=center;verticalAlign=middle;resizable=0;points=[];autosize=1;strokeColor=none;fillColor=none;" parent="WIyWlLk6GJQsqaUBKTNV-1" vertex="1">
          <mxGeometry x="540" y="110" width="40" height="30" as="geometry" />
        </mxCell>
        <mxCell id="QuJUpWV3iU7dLVu2fuEj-87" value="" style="edgeStyle=orthogonalEdgeStyle;rounded=0;orthogonalLoop=1;jettySize=auto;html=1;" parent="WIyWlLk6GJQsqaUBKTNV-1" source="QuJUpWV3iU7dLVu2fuEj-77" target="QuJUpWV3iU7dLVu2fuEj-86" edge="1">
          <mxGeometry relative="1" as="geometry" />
        </mxCell>
        <mxCell id="QuJUpWV3iU7dLVu2fuEj-92" style="edgeStyle=orthogonalEdgeStyle;rounded=0;orthogonalLoop=1;jettySize=auto;html=1;exitX=1;exitY=0.75;exitDx=0;exitDy=0;" parent="WIyWlLk6GJQsqaUBKTNV-1" source="QuJUpWV3iU7dLVu2fuEj-77" target="QuJUpWV3iU7dLVu2fuEj-88" edge="1">
          <mxGeometry relative="1" as="geometry" />
        </mxCell>
        <mxCell id="QuJUpWV3iU7dLVu2fuEj-77" value="cell type_ == FORMULA?" style="rounded=1;whiteSpace=wrap;html=1;fontSize=12;glass=0;strokeWidth=1;shadow=0;" parent="WIyWlLk6GJQsqaUBKTNV-1" vertex="1">
          <mxGeometry x="140" y="200" width="160" height="30" as="geometry" />
        </mxCell>
        <mxCell id="QuJUpWV3iU7dLVu2fuEj-79" value="true" style="text;html=1;align=center;verticalAlign=middle;resizable=0;points=[];autosize=1;strokeColor=none;fillColor=none;" parent="WIyWlLk6GJQsqaUBKTNV-1" vertex="1">
          <mxGeometry x="220" y="160" width="40" height="30" as="geometry" />
        </mxCell>
        <mxCell id="QuJUpWV3iU7dLVu2fuEj-85" value="false" style="text;html=1;align=center;verticalAlign=middle;resizable=0;points=[];autosize=1;strokeColor=none;fillColor=none;" parent="WIyWlLk6GJQsqaUBKTNV-1" vertex="1">
          <mxGeometry x="400" y="160" width="50" height="30" as="geometry" />
        </mxCell>
        <mxCell id="QuJUpWV3iU7dLVu2fuEj-96" style="edgeStyle=orthogonalEdgeStyle;rounded=0;orthogonalLoop=1;jettySize=auto;html=1;entryX=0;entryY=0.5;entryDx=0;entryDy=0;" parent="WIyWlLk6GJQsqaUBKTNV-1" source="QuJUpWV3iU7dLVu2fuEj-86" target="QuJUpWV3iU7dLVu2fuEj-88" edge="1">
          <mxGeometry relative="1" as="geometry" />
        </mxCell>
        <mxCell id="QuJUpWV3iU7dLVu2fuEj-99" value="" style="edgeStyle=orthogonalEdgeStyle;rounded=0;orthogonalLoop=1;jettySize=auto;html=1;" parent="WIyWlLk6GJQsqaUBKTNV-1" source="QuJUpWV3iU7dLVu2fuEj-86" target="QuJUpWV3iU7dLVu2fuEj-98" edge="1">
          <mxGeometry relative="1" as="geometry" />
        </mxCell>
        <mxCell id="QuJUpWV3iU7dLVu2fuEj-100" value="" style="edgeStyle=orthogonalEdgeStyle;rounded=0;orthogonalLoop=1;jettySize=auto;html=1;" parent="WIyWlLk6GJQsqaUBKTNV-1" source="QuJUpWV3iU7dLVu2fuEj-86" target="QuJUpWV3iU7dLVu2fuEj-98" edge="1">
          <mxGeometry relative="1" as="geometry" />
        </mxCell>
        <mxCell id="QuJUpWV3iU7dLVu2fuEj-86" value="В формуле есть ссылки на другие ячейки? Они зациклены?" style="rounded=1;whiteSpace=wrap;html=1;fontSize=12;glass=0;strokeWidth=1;shadow=0;" parent="WIyWlLk6GJQsqaUBKTNV-1" vertex="1">
          <mxGeometry x="140" y="282.5" width="160" height="47.5" as="geometry" />
        </mxCell>
        <mxCell id="QuJUpWV3iU7dLVu2fuEj-88" value="throw&lt;br&gt;FormulaError" style="shape=hexagon;perimeter=hexagonPerimeter2;whiteSpace=wrap;html=1;fixedSize=1;rounded=1;glass=0;strokeWidth=1;shadow=0;" parent="WIyWlLk6GJQsqaUBKTNV-1" vertex="1">
          <mxGeometry x="400" y="278.75" width="100" height="55" as="geometry" />
        </mxCell>
        <mxCell id="QuJUpWV3iU7dLVu2fuEj-93" value="false" style="text;html=1;align=center;verticalAlign=middle;resizable=0;points=[];autosize=1;strokeColor=none;fillColor=none;" parent="WIyWlLk6GJQsqaUBKTNV-1" vertex="1">
          <mxGeometry x="310" y="220" width="50" height="30" as="geometry" />
        </mxCell>
        <mxCell id="QuJUpWV3iU7dLVu2fuEj-95" value="true" style="text;html=1;align=center;verticalAlign=middle;resizable=0;points=[];autosize=1;strokeColor=none;fillColor=none;" parent="WIyWlLk6GJQsqaUBKTNV-1" vertex="1">
          <mxGeometry x="220" y="240" width="40" height="30" as="geometry" />
        </mxCell>
        <mxCell id="QuJUpWV3iU7dLVu2fuEj-97" value="true" style="text;html=1;align=center;verticalAlign=middle;resizable=0;points=[];autosize=1;strokeColor=none;fillColor=none;" parent="WIyWlLk6GJQsqaUBKTNV-1" vertex="1">
          <mxGeometry x="315" y="278.75" width="40" height="30" as="geometry" />
        </mxCell>
        <mxCell id="QuJUpWV3iU7dLVu2fuEj-102" style="edgeStyle=orthogonalEdgeStyle;rounded=0;orthogonalLoop=1;jettySize=auto;html=1;entryX=0.5;entryY=1;entryDx=0;entryDy=0;" parent="WIyWlLk6GJQsqaUBKTNV-1" source="QuJUpWV3iU7dLVu2fuEj-98" target="QuJUpWV3iU7dLVu2fuEj-88" edge="1">
          <mxGeometry relative="1" as="geometry" />
        </mxCell>
        <mxCell id="QuJUpWV3iU7dLVu2fuEj-105" value="" style="edgeStyle=orthogonalEdgeStyle;rounded=0;orthogonalLoop=1;jettySize=auto;html=1;" parent="WIyWlLk6GJQsqaUBKTNV-1" source="QuJUpWV3iU7dLVu2fuEj-98" target="QuJUpWV3iU7dLVu2fuEj-104" edge="1">
          <mxGeometry relative="1" as="geometry" />
        </mxCell>
        <mxCell id="QuJUpWV3iU7dLVu2fuEj-98" value="Формула и операнды валидны?" style="rounded=1;whiteSpace=wrap;html=1;fontSize=12;glass=0;strokeWidth=1;shadow=0;" parent="WIyWlLk6GJQsqaUBKTNV-1" vertex="1">
          <mxGeometry x="140" y="380" width="160" height="40" as="geometry" />
        </mxCell>
        <mxCell id="QuJUpWV3iU7dLVu2fuEj-101" value="false" style="text;html=1;align=center;verticalAlign=middle;resizable=0;points=[];autosize=1;strokeColor=none;fillColor=none;" parent="WIyWlLk6GJQsqaUBKTNV-1" vertex="1">
          <mxGeometry x="215" y="340" width="50" height="30" as="geometry" />
        </mxCell>
        <mxCell id="QuJUpWV3iU7dLVu2fuEj-103" value="false" style="text;html=1;align=center;verticalAlign=middle;resizable=0;points=[];autosize=1;strokeColor=none;fillColor=none;" parent="WIyWlLk6GJQsqaUBKTNV-1" vertex="1">
          <mxGeometry x="310" y="370" width="50" height="30" as="geometry" />
        </mxCell>
        <mxCell id="QuJUpWV3iU7dLVu2fuEj-106" style="edgeStyle=orthogonalEdgeStyle;rounded=0;orthogonalLoop=1;jettySize=auto;html=1;entryX=0.5;entryY=1;entryDx=0;entryDy=0;" parent="WIyWlLk6GJQsqaUBKTNV-1" source="QuJUpWV3iU7dLVu2fuEj-104" target="QuJUpWV3iU7dLVu2fuEj-20" edge="1">
          <mxGeometry relative="1" as="geometry" />
        </mxCell>
        <mxCell id="QuJUpWV3iU7dLVu2fuEj-104" value="Сделать вычисления, обновить КЭШ и зависимости" style="rounded=1;whiteSpace=wrap;html=1;fontSize=12;glass=0;strokeWidth=1;shadow=0;" parent="WIyWlLk6GJQsqaUBKTNV-1" vertex="1">
          <mxGeometry x="140" y="470" width="160" height="50" as="geometry" />
        </mxCell>
        <mxCell id="QuJUpWV3iU7dLVu2fuEj-107" value="true" style="text;html=1;align=center;verticalAlign=middle;resizable=0;points=[];autosize=1;strokeColor=none;fillColor=none;" parent="WIyWlLk6GJQsqaUBKTNV-1" vertex="1">
          <mxGeometry x="220" y="430" width="40" height="30" as="geometry" />
        </mxCell>
      </root>
    </mxGraphModel>
  </diagram>
</mxfile>
